<?xml version="1.0" encoding="UTF-8"?>
<svg version="1.1" xmlns="http://www.w3.org/2000/svg" width="1404" height="1404">
<path d="M0 0 C463.32 0 926.64 0 1404 0 C1404 463.32 1404 926.64 1404 1404 C940.68 1404 477.36 1404 0 1404 C0 940.68 0 477.36 0 0 Z " fill="#FD0000" transform="translate(0,0)"/>
<path d="M0 0 C0.96341309 0.55800293 1.92682617 1.11600586 2.91943359 1.69091797 C4.56963501 2.6407959 4.56963501 2.6407959 6.25317383 3.60986328 C7.44143455 4.30089535 8.62966619 4.99197742 9.81787109 5.68310547 C11.06111073 6.40080211 12.30468792 7.11791432 13.54858398 7.83447266 C16.13623662 9.32571066 18.72241571 10.81945844 21.30761719 12.31494141 C26.81485755 15.49803317 32.34034528 18.64910203 37.86547852 21.80099487 C40.7944995 23.47239862 43.72210287 25.14628201 46.64990234 26.81982422 C50.66729675 29.11556142 54.68539446 31.41005411 58.70458984 33.70263672 C76.54268992 43.87995501 94.34041441 54.12666 112.06787109 64.49560547 C121.88428296 70.23559363 131.74752557 75.89133857 141.62548828 81.52441406 C152.76439614 87.87734442 163.8721969 94.28357178 174.97509766 100.69921875 C180.37957755 103.82135152 185.78634522 106.93951751 191.19287109 110.05810547 C193.3595486 111.30808668 195.52621527 112.55808668 197.69287109 113.80810547 C198.76537109 114.42685547 199.83787109 115.04560547 200.94287109 115.68310547 C221.52620443 127.55810547 242.10953776 139.43310547 262.69287109 151.30810547 C263.76569336 151.9270166 264.83851563 152.54592773 265.94384766 153.18359375 C268.10734586 154.43181581 270.27075753 155.68018786 272.43408203 156.92871094 C277.89852126 160.08215803 283.36450755 163.23286642 288.83349609 166.37841797 C289.94080078 167.01585937 291.04810547 167.65330078 292.18896484 168.31005859 C294.23785763 169.48946327 296.2872642 170.66797628 298.33740234 171.84521484 C300.30919151 172.98076586 302.26706588 174.14079463 304.2108593 175.32362843 C307.2500265 177.10903954 310.36375463 178.53634609 313.59030342 179.95221233 C328.25443401 186.81294414 328.25443401 186.81294414 331.46215582 193.01042962 C333.45462387 200.04749198 333.01352726 207.28549767 332.78222656 214.52416992 C332.78588795 216.93988258 332.79924671 219.35559695 332.82151794 221.77120972 C332.85103417 227.6244542 332.78029903 233.47014633 332.66407983 239.3221691 C332.53424834 246.13664919 332.52990603 252.9495278 332.53269972 259.76503446 C332.53439299 271.91604867 332.43830154 284.0642079 332.27978516 296.21411133 C332.1261195 308.0084291 332.01908718 319.80166919 331.97412109 331.59692383 C331.97132817 332.32532234 331.96853525 333.05372085 331.9656577 333.80419204 C331.9519304 337.4587688 331.93911309 341.11334808 331.92674804 344.76792967 C331.82317275 375.03307485 331.55887337 405.29492876 331.19287109 435.55810547 C331.88768082 435.94587662 332.58249054 436.33364777 333.2983551 436.73316956 C336.51509111 438.52921982 339.73093674 440.32685876 342.94677734 442.12451172 C344.03913696 442.73411743 345.13149658 443.34372314 346.25695801 443.97180176 C353.59145358 448.07364112 360.87819145 452.24999767 368.13037109 456.49560547 C369.23646729 457.14271484 370.34256348 457.78982422 371.48217773 458.45654297 C372.34705811 458.96443359 373.21193848 459.47232422 374.10302734 459.99560547 C380.40857574 463.69023884 386.73584644 467.34657787 393.06787109 470.99560547 C394.14657471 471.61741699 395.22527832 472.23922852 396.33666992 472.87988281 C399.62179361 474.77310446 402.90726838 476.6657153 406.19287109 478.55810547 C418.83590218 485.84004118 431.47411645 493.12869788 444.06787109 500.49560547 C453.88425567 506.23563968 463.74752604 511.89133884 473.62548828 517.52441406 C484.74846615 523.86825896 495.83999696 530.26592946 506.92675781 536.67285156 C510.30648198 538.62368353 513.68880669 540.56994053 517.07177734 542.51513672 C518.21179199 543.17118896 519.35180664 543.82724121 520.52636719 544.50317383 C522.66801756 545.73550358 524.81021524 546.966883 526.953125 548.19702148 C528.90358943 549.32011712 530.84497163 550.45918945 532.7752499 551.61663538 C535.19463365 552.9910303 537.50163556 554.17852449 540.01991278 555.32038349 C550.24787534 560.22584304 550.24787534 560.22584304 552.56977642 565.9563266 C553.09069921 570.2134033 553.12499977 574.24602604 552.99668884 578.52223206 C553.00323619 580.14695968 553.01638158 581.77167176 553.03552634 583.39629978 C553.06898963 587.8474263 553.00921431 592.29311475 552.93385541 596.74354804 C552.86896554 601.54710966 552.89100644 606.35037438 552.90238953 611.1542511 C552.91024829 619.47239725 552.86326259 627.78877617 552.77882195 636.10647774 C552.65681841 648.13209736 552.61784117 660.15686406 552.59900207 672.18303549 C552.56618716 691.69501767 552.46640472 711.20605827 552.32446289 730.7175293 C552.18673862 749.66897882 552.08058207 768.62017244 552.0168457 787.57202148 C552.01290485 788.74055924 552.008964 789.90909699 552.00490373 791.11304498 C551.9853279 796.9753636 551.96637235 802.83768402 551.94772518 808.70000565 C551.79226989 857.32002297 551.52811389 905.93901826 551.19287109 954.55810547 C550.02366623 955.22573158 550.02366623 955.22573158 548.83084106 955.90684509 C545.87076511 957.5972363 542.91082077 959.28785755 539.95095825 960.97862244 C538.68265767 961.70305602 537.41430835 962.42740427 536.14590454 963.1516571 C524.21347584 969.96515851 512.30794402 976.82454022 500.41064453 983.69921875 C495.00616464 986.82135152 489.59939697 989.93951751 484.19287109 993.05810547 C482.02619359 994.30808668 479.85952692 995.55808668 477.69287109 996.80810547 C386.6928711 1049.30810546 386.6928711 1049.30810546 383.44238281 1051.18334961 C381.27730039 1052.43246065 379.11226127 1053.68164676 376.94726562 1054.9309082 C371.50671404 1058.07012856 366.06539894 1061.2080111 360.62255859 1064.34326172 C358.43760673 1065.60227907 356.25271075 1066.86139341 354.06787109 1068.12060547 C352.99093994 1068.7412085 351.91400879 1069.36181152 350.80444336 1070.0012207 C344.55842493 1073.60445758 338.32688275 1077.23124817 332.10571289 1080.87719727 C321.82149325 1086.90325884 311.47000353 1092.79092326 301.0559082 1098.58959961 C295.22437539 1101.84216165 289.43105416 1105.14369607 283.69287109 1108.55810547 C275.85764249 1113.22032657 267.90013828 1117.65248566 259.93457031 1122.08740234 C251.3660547 1126.87091674 242.87729326 1131.78162389 234.4230957 1136.76416016 C232.59485695 1137.83927417 230.76332015 1138.90880337 228.92822266 1139.97216797 C227.02096242 1141.07798397 225.1224714 1142.1990042 223.23095703 1143.33154297 C222.26706055 1143.89099609 221.30316406 1144.45044922 220.31005859 1145.02685547 C219.44751465 1145.53667969 218.5849707 1146.04650391 217.69628906 1146.57177734 C214.61378626 1147.7862606 213.31540734 1147.59432535 210.19287109 1146.55810547 C208.30970377 1145.66197519 206.46103324 1144.69158942 204.64208984 1143.67138672 C203.5634668 1143.06987793 202.48484375 1142.46836914 201.37353516 1141.84863281 C200.20898882 1141.18957002 199.0446049 1140.53022018 197.88037109 1139.87060547 C196.66800767 1139.19007028 195.45543954 1138.50989963 194.24267578 1137.83007812 C185.4316925 1132.87812664 176.69034463 1127.80821558 167.97485352 1122.69018555 C161.25167706 1118.74429944 154.48847505 1114.87777345 147.69287109 1111.05810547 C138.8725101 1106.09698147 130.11374367 1101.03869122 121.37988281 1095.92700195 C110.77251217 1089.71983354 100.12462632 1083.58368885 89.47509766 1077.44921875 C84.04627167 1074.32130399 78.61967828 1071.18952099 73.19287109 1068.05810547 C71.02621527 1066.80808668 68.8595486 1065.55808668 66.69287109 1064.30810547 C53.69287113 1056.80810549 53.69287113 1056.80810549 50.43994141 1054.93139648 C48.28306206 1053.68705549 46.12616118 1052.44275183 43.96923828 1051.19848633 C39.56238163 1048.65624842 35.15560407 1046.11387489 30.74951172 1043.5703125 C30.17551636 1043.23897308 29.601521 1042.90763367 29.01013184 1042.56625366 C27.28298688 1041.56893565 25.55628675 1040.57084744 23.82958984 1039.57275391 C21.60089516 1038.2881055 19.36919238 1037.00865931 17.13427734 1035.73486328 C12.61004615 1033.15137702 8.12808618 1030.56967769 3.80224609 1027.66357422 C3.17543945 1027.25679443 2.54863281 1026.85001465 1.90283203 1026.4309082 C0.35467583 1025.41435047 -1.16562576 1024.35568105 -2.68212891 1023.29248047 C-7.87852091 1022.07132835 -11.39527188 1024.93337024 -15.80712891 1027.55810547 C-16.67595703 1028.05117187 -17.54478516 1028.54423828 -18.43994141 1029.05224609 C-21.2450169 1030.65310186 -24.02698558 1032.28936088 -26.80712891 1033.93310547 C-28.9370128 1035.18365821 -31.06723267 1036.43363887 -33.19775391 1037.68310547 C-34.28894531 1038.32376953 -35.38013672 1038.96443359 -36.50439453 1039.62451172 C-41.8424426 1042.74968475 -47.19852542 1045.84334621 -52.55712891 1048.93310547 C-53.62439209 1049.54871338 -54.69165527 1050.16432129 -55.79125977 1050.79858398 C-64.57359917 1055.85865067 -73.37662694 1060.88209424 -82.18096924 1065.90371704 C-89.61249056 1070.14374014 -97.02061013 1074.41876763 -104.38427734 1078.77563477 C-120.34789138 1088.20956303 -136.46975769 1097.37656777 -152.57461548 1106.56671143 C-162.05707171 1111.9781064 -171.519218 1117.42399079 -180.97192383 1122.88720703 C-190.54091608 1128.41377781 -200.1343371 1133.89710195 -209.73486328 1139.36865234 C-210.84796875 1140.00351563 -211.96107422 1140.63837891 -213.10791016 1141.29248047 C-214.08928955 1141.85161133 -215.07066895 1142.41074219 -216.08178711 1142.98681641 C-217.91485623 1144.04366786 -219.7266249 1145.13825971 -221.51611328 1146.26733398 C-223.80712891 1147.55810547 -223.80712891 1147.55810547 -226.16259766 1147.47607422 C-229.66455471 1146.26047613 -232.87057044 1144.6331413 -236.11962891 1142.87060547 C-236.84674072 1142.48122803 -237.57385254 1142.09185059 -238.32299805 1141.69067383 C-245.94037159 1137.56601356 -253.40214213 1133.17343254 -260.86889648 1128.78393555 C-266.80687237 1125.29545094 -272.77031291 1121.87240871 -278.80712891 1118.55810547 C-286.81173149 1114.1583091 -294.69339497 1109.56054212 -302.57275391 1104.94091797 C-309.44912791 1100.91593546 -316.3615477 1096.96231344 -323.30712891 1093.05810547 C-331.07707218 1088.68850547 -338.80267346 1084.25107484 -346.49462891 1079.74560547 C-355.19360122 1074.65045245 -363.92443898 1069.6140027 -372.68212891 1064.62060547 C-391.05395947 1054.14293811 -409.37186367 1043.57485241 -427.62841797 1032.89746094 C-435.9189337 1028.05748228 -444.25154447 1023.29301258 -452.59255981 1018.54089355 C-460.7968077 1013.86576404 -468.9719665 1009.14387558 -477.11962891 1004.37060547 C-484.81154099 999.86505275 -492.53732668 995.42795762 -500.30712891 991.05810547 C-509.10960777 986.10671111 -517.85121623 981.05939935 -526.56738281 975.95776367 C-534.42364853 971.3602744 -542.29787111 966.79485332 -550.18212891 962.24560547 C-551.31239502 961.59285645 -552.44266113 960.94010742 -553.60717773 960.26757812 C-554.650271 959.66606934 -555.69336426 959.06456055 -556.76806641 958.44482422 C-557.69409668 957.91074951 -558.62012695 957.3766748 -559.57421875 956.82641602 C-560.9661402 956.03579367 -562.37533869 955.27400057 -563.80712891 954.55810547 C-563.80712891 825.19810547 -563.80712891 695.83810547 -563.80712891 562.55810547 C-505.30712891 528.80810547 -505.30712891 528.80810547 -502.05664062 526.93286133 C-499.8915582 525.68375029 -497.72651908 524.43456418 -495.56152344 523.18530273 C-490.12097185 520.04608237 -484.67965675 516.90819984 -479.23681641 513.77294922 C-468.67981057 507.68988984 -458.1351851 501.58757217 -447.61962891 495.43310547 C-438.93869906 490.35420058 -430.20603662 485.37573877 -421.43994141 480.44555664 C-414.62943566 476.60769766 -407.86502569 472.69665567 -401.11962891 468.74560547 C-388.86412679 461.56706495 -376.54066489 454.51107159 -364.19287109 447.49267578 C-361.76555269 446.10573671 -359.34495516 444.70997733 -356.92919922 443.30322266 C-356.28898834 442.93224457 -355.64877747 442.56126648 -354.98916626 442.17904663 C-353.75077777 441.46105722 -352.51433955 440.7396907 -351.28012085 440.01455688 C-347.03177455 437.55810547 -347.03177455 437.55810547 -344.80712891 437.55810547 C-344.82510387 435.65970917 -344.82510387 435.65970917 -344.84344196 433.72296143 C-345.12507351 403.67139533 -345.33939314 373.6201699 -345.47097819 343.56760734 C-345.48723712 339.8676604 -345.50406334 336.16771623 -345.52124023 332.46777344 C-345.52635529 331.36289839 -345.52635529 331.36289839 -345.53157368 330.23570263 C-345.58812189 318.31316585 -345.69060866 306.391445 -345.81011526 294.46939206 C-345.93174231 282.23363009 -346.0039043 269.99829502 -346.03027934 257.76195335 C-346.04810708 250.21258462 -346.10437412 242.66552193 -346.21004298 235.11686331 C-346.28697507 229.32559537 -346.2950336 223.53580037 -346.27752876 217.74412346 C-346.28110527 215.37042993 -346.30696937 212.99664915 -346.35680008 210.62347603 C-346.70563268 193.15345238 -346.70563268 193.15345238 -343.55781531 188.85023308 C-340.0985777 185.7037781 -336.16472745 184.18953094 -331.80712891 182.55810547 C-329.77280333 181.41459839 -327.75487133 180.24079897 -325.76416016 179.02294922 C-323.7170734 177.84527069 -321.66886062 176.66954767 -319.61962891 175.49560547 C-317.91881038 174.51764097 -316.21799351 173.53967355 -314.51727295 172.5615387 C-312.77033709 171.55716512 -311.02292333 170.55362767 -309.27539062 169.55029297 C-303.74091977 166.37126424 -298.21112369 163.18414636 -292.68212891 159.99560547 C-291.60406982 159.37411621 -290.52601074 158.75262695 -289.4152832 158.11230469 C-282.24013008 153.97231629 -275.08245327 149.80329604 -267.93212891 145.62060547 C-259.2943089 140.56972528 -250.62393251 135.57786193 -241.93212891 130.62060547 C-223.39511008 120.04790098 -204.91327245 109.38255837 -186.48925781 98.61401367 C-179.30631047 94.42050449 -172.09567429 90.27800007 -164.86914062 86.16015625 C-157.93997762 82.2104684 -151.02704206 78.23319977 -144.11962891 74.24560547 C-143.03157959 73.61750977 -141.94353027 72.98941406 -140.82250977 72.34228516 C-137.48385522 70.41456139 -134.14544585 68.4864138 -130.80712891 66.55810547 C-117.80699609 59.0488531 -104.80428102 51.54510883 -91.76318359 44.10717773 C-84.91091468 40.19613944 -78.07627326 36.25503933 -71.24462891 32.30810547 C-64.39191762 28.34981468 -57.53584209 24.39762688 -50.66650391 20.46826172 C-50.07302658 20.1287146 -49.47954926 19.78916748 -48.86808777 19.43933105 C-45.90353704 17.74428052 -42.93689428 16.05304789 -39.96655273 14.36816406 C-34.46675457 11.24367471 -28.99569887 8.08788949 -23.58447266 4.81201172 C-22.14551636 3.95289185 -22.14551636 3.95289185 -20.67749023 3.07641602 C-18.90026155 2.01260754 -17.13237645 0.93296416 -15.3762207 -0.1652832 C-14.59287354 -0.63039307 -13.80952637 -1.09550293 -13.00244141 -1.57470703 C-12.33229004 -1.9860791 -11.66213867 -2.39745117 -10.97167969 -2.82128906 C-6.90422943 -3.9874811 -3.59450289 -1.84633276 0 0 Z " fill="#FEFDFC" transform="translate(725.80712890625,119.44189453125)"/>
<path d="M0 0 C3.53064211 1.38427362 6.80355979 2.90979826 10.11328125 4.765625 C11.10110596 5.31847168 12.08893066 5.87131836 13.10668945 6.44091797 C14.69356567 7.33641357 14.69356567 7.33641357 16.3125 8.25 C17.42262451 8.87406738 18.53274902 9.49813477 19.67651367 10.14111328 C28.08587771 14.88369692 36.43691436 19.72246106 44.76489258 24.60644531 C52.47854242 29.12670554 60.23158834 33.57488657 68 38 C76.69418163 42.95349446 85.36497675 47.9437863 94 53 C102.59517466 58.03189893 111.22320217 63.00374921 119.875 67.9375 C138.84623708 78.75745103 157.7654722 89.66568795 176.61425781 100.69775391 C177.55624023 101.24866699 178.49822266 101.79958008 179.46875 102.3671875 C180.29826172 102.85300293 181.12777344 103.33881836 181.98242188 103.83935547 C183.30046576 104.59758159 184.6399569 105.31997845 186 106 C186 221.5 186 337 186 456 C178.74 459.96 171.48 463.92 164 468 C155.93401084 472.74159428 155.93401084 472.74159428 147.890625 477.51953125 C141.34769109 481.4053739 134.73852726 485.17368845 128.125 488.9375 C119.34859898 493.93447768 110.59241598 498.96299251 101.875 504.0625 C84.01203995 514.50994812 66.07341982 524.82394318 48.09783936 535.07608032 C39.0157496 540.25773549 29.96931092 545.49788389 20.94360352 550.77709961 C5.00640955 560.0964072 -10.99958264 569.2966218 -27.03466797 578.44628906 C-41.37954231 586.63635407 -55.69029987 594.88663772 -69.94873047 603.22631836 C-74.96180133 606.15778955 -79.98065174 609.07929441 -85 612 C-85.59605042 612.34752319 -86.19210083 612.69504639 -86.80621338 613.05310059 C-90.63518744 615.28550052 -94.46846787 617.51019651 -98.30743408 619.72537231 C-99.54988617 620.44380673 -100.79092442 621.16469242 -102.03045654 621.88815308 C-103.75992304 622.89694484 -105.49509377 623.8959378 -107.23046875 624.89453125 C-108.72163208 625.75848511 -108.72163208 625.75848511 -110.24291992 626.63989258 C-112.96998501 627.98519317 -114.96989308 628.79434214 -118 629 C-120.2980957 628.14233398 -120.2980957 628.14233398 -122.67578125 626.74609375 C-123.57321045 626.22877686 -124.47063965 625.71145996 -125.39526367 625.1784668 C-126.35795166 624.60394775 -127.32063965 624.02942871 -128.3125 623.4375 C-129.32868408 622.84686768 -130.34486816 622.25623535 -131.3918457 621.64770508 C-134.60240176 619.77818933 -137.80127295 617.88966734 -141 616 C-142.95481874 614.8578154 -144.91052437 613.71714711 -146.8671875 612.578125 C-149.80230342 610.86908267 -152.73660227 609.15875544 -155.66772461 607.44287109 C-163.37478948 602.93217347 -171.11739912 598.48550509 -178.875 594.0625 C-191.19753715 587.03579619 -203.491386 579.96057379 -215.7734375 572.86328125 C-219.03524007 570.9796495 -222.29861844 569.09877679 -225.5625 567.21875 C-238.06320875 560.01709318 -250.54492028 552.78420675 -263 545.50390625 C-267.20435894 543.04649738 -271.41326704 540.59709237 -275.625 538.15234375 C-276.71280762 537.52013916 -277.80061523 536.88793457 -278.92138672 536.23657227 C-281.00028386 535.02855591 -283.0799895 533.82192944 -285.16064453 532.61694336 C-295.50701952 526.59915382 -295.50701952 526.59915382 -299 524 C-299 523.34 -299 522.68 -299 522 C-298.2879541 521.59386475 -297.5759082 521.18772949 -296.84228516 520.76928711 C-282.65864341 512.67714863 -268.4882909 504.56339866 -254.34936523 496.39331055 C-246.44142474 491.82567242 -238.51827553 487.28530992 -230.58227539 482.76660156 C-229.7855542 482.3125293 -228.98883301 481.85845703 -228.16796875 481.390625 C-227.13579224 480.8032959 -227.13579224 480.8032959 -226.08276367 480.20410156 C-225.39545166 479.80674805 -224.70813965 479.40939453 -224 479 C-222.71784088 478.52151249 -222.71784088 478.52151249 -221.40977955 478.03335857 C-218.87662833 476.30051354 -218.87662833 476.30051354 -218.53448427 474.10404837 C-218.34825553 471.47892449 -218.33126804 468.89390977 -218.36076355 466.26216125 C-218.34823004 464.74536019 -218.34823004 464.74536019 -218.33544332 463.19791669 C-218.3134133 459.79346407 -218.32715154 456.39007979 -218.34057617 452.9855957 C-218.33212849 450.55167823 -218.32148695 448.11776752 -218.30880737 445.68386841 C-218.28642201 440.43565759 -218.27936486 435.18766146 -218.28615379 429.93941689 C-218.29594309 422.35133864 -218.27823707 414.76352132 -218.25378648 407.17548528 C-218.214867 394.86494995 -218.19823218 382.5544891 -218.19555664 370.24389648 C-218.19290977 358.28422219 -218.17980178 346.32463496 -218.15258789 334.36499023 C-218.15007782 333.25949063 -218.15007782 333.25949063 -218.14751705 332.1316577 C-218.13905767 328.43440359 -218.13039224 324.73715 -218.12162435 321.03989661 C-218.04913472 290.35994249 -218.01315809 259.68004028 -218 229 C-217.30682678 228.61321075 -216.61365356 228.22642151 -215.8994751 227.82791138 C-212.68756572 226.03483055 -209.47659303 224.24007846 -206.265625 222.4453125 C-204.63101318 221.5332605 -204.63101318 221.5332605 -202.96337891 220.6027832 C-193.4921438 215.30632271 -184.11930373 209.85057588 -174.7578125 204.36328125 C-169.40062601 201.22677824 -164.01892203 198.13530723 -158.625 195.0625 C-142.36581265 185.79636136 -126.15870611 176.44026184 -110 167 C-92.09381022 156.53987565 -74.11849382 146.20169356 -56.10488892 135.927948 C-39.69023885 126.63451809 -39.69023885 126.63451809 -23.5039978 116.95448303 C-20.85826727 115.39179413 -18.16786416 114.22896495 -15.31890869 113.08227539 C-6.06269463 109.15454666 -6.06269463 109.15454666 0.08280754 101.62157631 C1.7736977 94.57308603 1.32756527 87.36473818 1.07421875 80.17578125 C1.06120271 77.85982889 1.05659783 75.54381539 1.06001282 73.22782898 C1.04654129 67.16007458 0.91958276 61.09991184 0.76818848 55.03424072 C0.6337633 48.83390475 0.60769645 42.63319259 0.57226562 36.43164062 C0.48701737 24.28497945 0.28175486 12.14358193 0 0 Z " fill="#FD0000" transform="translate(1056,597)"/>
<path d="M0 0 C0.80443781 2.8035962 1.09938434 5.19659771 0.99671936 8.10726929 C0.97182434 8.9171228 0.94692932 9.72697632 0.92127991 10.56137085 C0.88933029 11.44136749 0.85738068 12.32136414 0.82446289 13.22802734 C0.7650748 15.16389118 0.70703811 17.09979682 0.65016174 19.03573608 C0.61953707 20.06153149 0.58891239 21.08732689 0.5573597 22.144207 C0.38231171 28.74023155 0.30994147 35.3382428 0.22979069 41.9359951 C0.15386665 47.72548315 0.03451412 53.50742209 -0.18286133 59.29345703 C-2.50688061 83.33888595 -2.50688061 83.33888595 4.24188232 105.39099121 C9.75574517 110.49150521 15.98620695 113.00174892 23.11715698 115.10333252 C26.93162076 116.28976744 29.82393725 118.01492793 33.1875 120.15625 C35.1247253 121.27131072 37.06221785 122.38590727 39 123.5 C47.34836588 128.30785409 55.68238533 133.1391454 64 138 C81.9083669 148.46176054 99.88624116 158.80093635 117.90216064 169.07608032 C126.98795878 174.25985125 136.03821041 179.50194021 145.06738281 184.78369141 C152.32240491 189.02640141 159.59372636 193.2400087 166.875 197.4375 C167.94741943 198.05584717 169.01983887 198.67419434 170.12475586 199.3112793 C175.71292907 202.53218506 181.303119 205.74956462 186.89453125 208.96484375 C188.03229004 209.61976807 189.17004883 210.27469238 190.34228516 210.94946289 C192.48060319 212.18029885 194.61954036 213.41006021 196.75927734 214.63842773 C198.71267357 215.76316335 200.65445559 216.90839967 202.58197021 218.07693481 C205.03815443 219.45884271 207.25185439 220.54724489 209.83126831 221.59690857 C214.61113063 223.70474212 219.69749876 225.95047903 221.85223579 230.99532318 C223.24134481 237.13306765 222.86268206 243.42040739 222.68359375 249.66796875 C222.67805096 251.80120663 222.67927159 253.93447102 222.68667603 256.06770325 C222.68855345 261.89106242 222.59870882 267.70988772 222.49373245 273.53216553 C222.39924531 279.67420822 222.39060277 285.81632262 222.37475586 291.95898438 C222.34041007 301.88008198 222.26768246 311.80000135 222.16495764 321.72055268 C221.97965515 339.77725653 221.97134492 357.83203553 222.00363708 375.88952088 C222.01054564 379.77572683 222.01653651 383.66193423 222.0226593 387.54814148 C222.02510341 389.09070874 222.02755085 390.63327599 222.03000164 392.17584324 C222.03120648 392.93691006 222.03241132 393.69797688 222.03365266 394.48210633 C222.03611602 396.01326893 222.03864313 397.54443144 222.04123461 399.07559383 C222.06966805 415.92543506 222.05716265 432.77515879 222.03515625 449.625 C222.03268827 451.58956618 222.03268827 451.58956618 222.03017044 453.59382057 C222.02111103 460.72921532 222.01119818 467.86460829 222 475 C223.40853241 475.45558037 223.40853241 475.45558037 224.84552002 475.92036438 C227.82083034 476.93867834 230.22694305 478.12870818 232.921875 479.73046875 C233.85128906 480.27832031 234.78070312 480.82617188 235.73828125 481.390625 C236.73214844 481.98359375 237.72601562 482.5765625 238.75 483.1875 C240.91105633 484.46292098 243.072529 485.73763673 245.234375 487.01171875 C246.90790039 488.00051025 246.90790039 488.00051025 248.61523438 489.00927734 C254.05593136 492.20917948 259.52873311 495.35276363 265 498.5 C267.15370994 499.74468075 269.30735564 500.98947266 271.4609375 502.234375 C275.37645653 504.49510002 279.29981573 506.74063297 283.23516846 508.96655273 C286.0361243 510.5534109 288.82961527 512.15335382 291.625 513.75 C292.66914062 514.33458984 293.71328125 514.91917969 294.7890625 515.52148438 C295.7378125 516.06611328 296.6865625 516.61074219 297.6640625 517.171875 C298.50404785 517.6472168 299.3440332 518.12255859 300.20947266 518.61230469 C300.80034668 519.07024414 301.3912207 519.52818359 302 520 C302 520.99 302 521.98 302 523 C300.9790625 523.55945312 299.958125 524.11890625 298.90625 524.6953125 C289.00197797 530.14753535 279.20288134 535.76256796 269.44677734 541.4753418 C258.7511227 547.73811682 248.01342901 553.9269441 237.2734375 560.11328125 C234.0352484 561.9796838 230.79860562 563.84873763 227.5625 565.71875 C215.80346328 572.51256248 204.02917036 579.27877048 192.23306274 586.00796509 C183.74277984 590.85152344 175.27215977 595.72810702 166.8125 600.625 C157.01725385 606.29435613 147.16825662 611.86075735 137.26879883 617.34619141 C136.30095459 617.88421387 135.33311035 618.42223633 134.3359375 618.9765625 C133.42166992 619.48348633 132.50740234 619.99041016 131.56542969 620.51269531 C129.16670729 621.90335165 126.89467183 623.40470777 124.6015625 624.9609375 C122.21120711 626.45875545 121.31023818 626.99194802 118.44140625 627.06640625 C115.10678689 625.60984451 112.02951453 623.84077073 108.9375 621.9375 C107.41523185 621.02149139 105.89169996 620.10758101 104.3671875 619.1953125 C103.51995117 618.68774414 102.67271484 618.18017578 101.79980469 617.65722656 C96.42554982 614.47616255 90.9899072 611.40165698 85.5625 608.3125 C83.12591638 606.92385287 80.68981071 605.53436933 78.25390625 604.14453125 C77.6463298 603.79790939 77.03875336 603.45128754 76.4127655 603.09416199 C70.26319808 599.58351454 64.1306785 596.04351435 58 592.5 C49.01460299 587.30757131 40.01346193 582.14348744 31 577 C12.50665373 566.44469674 -5.9340899 555.8009371 -24.31787109 545.0559082 C-31.50081844 540.86239902 -38.71145462 536.7198946 -45.93798828 532.60205078 C-56.20232571 526.75128225 -66.42992589 520.83702375 -76.66064453 514.92773438 C-79.96932895 513.01770571 -83.27935039 511.1100164 -86.58984375 509.203125 C-97.03529862 503.18508407 -107.46954647 497.14947444 -117.875 491.0625 C-127.59696385 485.37644838 -137.36304867 479.77031825 -147.15576172 474.20727539 C-149.32976909 472.96990809 -151.48471258 471.69852157 -153.62061405 470.39648056 C-156.94077785 468.46530511 -160.30799937 467.07121793 -163.88935757 465.69008255 C-171.6442549 462.40859271 -179.88096819 458.89346004 -183.3979466 450.77173519 C-185.51403192 441.62115745 -185.24389438 432.26667186 -185.03477871 422.93162537 C-184.96562123 418.66651046 -185.03581306 414.40325964 -185.0877533 410.13821411 C-185.16724589 401.79950675 -185.11867927 393.46631759 -185.02467478 385.12795016 C-184.91927103 375.41052946 -184.93583042 365.694433 -184.95549034 355.97660008 C-184.98584058 338.63562276 -184.89691535 321.29727265 -184.74438477 303.95703125 C-184.59652309 287.14427747 -184.5470528 270.33481128 -184.60083008 253.52148438 C-184.65932541 235.1914843 -184.66432792 216.86296618 -184.57559246 198.53303456 C-184.56618618 196.57780165 -184.55680117 194.62256863 -184.54743767 192.66733551 C-184.54275007 191.70543387 -184.53806247 190.74353222 -184.53323283 189.75248204 C-184.50352649 182.98410975 -184.51059377 176.21634686 -184.53097725 169.4479599 C-184.55427738 161.19819036 -184.51523644 152.951412 -184.39784015 144.70240209 C-184.33934395 140.49522907 -184.30749504 136.29250762 -184.34949112 132.08503342 C-184.56743581 107.51949764 -184.56743581 107.51949764 -180.32774425 101.70763493 C-176.38538876 98.17719868 -172.09041055 96.27389625 -167.08144462 94.70904875 C-163.92665586 93.63436293 -161.32474798 91.98776403 -158.49609375 90.234375 C-156.4769131 89.07230725 -154.45737808 87.91085506 -152.4375 86.75 C-143.98295139 81.88292202 -135.54478287 76.98945506 -127.125 72.0625 C-118.48726249 67.01148016 -109.81680224 62.01975569 -101.125 57.0625 C-83.74198228 47.14798725 -66.3993593 37.16536983 -49.125 27.0625 C-36.73821608 19.81859649 -24.28364495 12.69422645 -11.80810547 5.60449219 C-10.10357899 4.63056174 -8.40338193 3.64892839 -6.71142578 2.65332031 C-2.1989209 0 -2.1989209 0 0 0 Z " fill="#FD0000" transform="translate(380,599)"/>
<path d="M0 0 C1.48113281 0.86818359 1.48113281 0.86818359 2.9921875 1.75390625 C3.73533203 2.16406982 4.47847656 2.5742334 5.24414062 2.99682617 C8.06703443 4.57396697 10.84123319 6.22059106 13.6171875 7.87890625 C15.77532211 9.15356282 17.93420706 10.42694965 20.09375 11.69921875 C21.22200195 12.36469727 22.35025391 13.03017578 23.51269531 13.71582031 C28.72123493 16.77576868 33.97289364 19.76022246 39.22332764 22.74749756 C48.51010457 28.03129262 57.77173375 33.35489536 66.9921875 38.75390625 C75.5873604 43.78580415 84.21530972 48.75779749 92.8671875 53.69140625 C105.18960333 60.71832401 117.48357203 67.79333162 129.765625 74.890625 C133.02742757 76.77425675 136.29080594 78.65512946 139.5546875 80.53515625 C150.00931701 86.55830364 160.45267192 92.5991307 170.8671875 98.69140625 C179.54480991 103.76665748 188.25824318 108.77649392 196.9921875 113.75390625 C206.7119205 119.2931125 216.39868436 124.88536718 226.0546875 130.53515625 C234.43612732 135.43729811 242.84537621 140.2901828 251.25976562 145.13549805 C259.65193318 149.97156641 268.02231084 154.84409552 276.375 159.74804688 C284.52713073 164.52102572 292.75382591 169.11982785 300.9921875 173.75390625 C300.9921875 240.74390625 300.9921875 307.73390625 300.9921875 376.75390625 C297.27988767 375.26898632 294.08618057 373.78583317 290.6328125 371.84765625 C289.09669312 370.98732788 289.09669312 370.98732788 287.52954102 370.10961914 C286.44471436 369.49723389 285.3598877 368.88484863 284.2421875 368.25390625 C283.11546631 367.62025146 281.98874512 366.98659668 280.82788086 366.33374023 C274.05105363 362.51182074 267.3093421 358.63802095 260.61865234 354.66748047 C253.90020937 350.68251369 247.13496644 346.77925159 240.3671875 342.87890625 C239.25158447 342.23574463 238.13598145 341.59258301 236.98657227 340.92993164 C234.89812104 339.72669373 232.80735196 338.52746648 230.71386719 337.33300781 C229.07188937 336.38034254 227.44266878 335.40443928 225.84082031 334.38574219 C223.35270052 332.81875039 221.54535067 331.76281387 218.56640625 331.71484375 C214.75781888 333.25214912 211.32209122 335.26846402 207.8046875 337.37890625 C206.09669109 338.38598831 204.38833807 339.39246572 202.6796875 340.3984375 C201.76316406 340.94064941 200.84664062 341.48286133 199.90234375 342.04150391 C194.72514593 345.08788524 189.51208284 348.0720474 184.3046875 351.06640625 C175.85251968 355.93731444 167.41484266 360.8321545 158.9921875 365.75390625 C140.97078833 376.28158108 122.87957385 386.68665863 104.75311279 397.03213501 C96.10810371 401.96650834 87.48023501 406.92910682 78.87109375 411.92578125 C74.13173137 414.67581828 69.38407292 417.41136506 64.63623047 420.14672852 C54.9927764 425.70341028 45.35859807 431.27554455 35.7421875 436.87890625 C34.76822021 437.44399902 33.79425293 438.0090918 32.79077148 438.59130859 C27.75893343 441.51896918 22.7654599 444.49523057 17.8125 447.5546875 C16.81379883 448.16489746 15.81509766 448.77510742 14.78613281 449.40380859 C12.88874066 450.56579465 10.99949764 451.74123105 9.12011719 452.93212891 C8.27094727 453.44952637 7.42177734 453.96692383 6.546875 454.5 C5.80937012 454.96075928 5.07186523 455.42151855 4.31201172 455.89624023 C1.12917795 457.07297093 -0.75103136 456.63514379 -4.0078125 455.75390625 C-6.84667969 454.40966797 -6.84667969 454.40966797 -9.8046875 452.68359375 C-10.91489258 452.04212402 -12.02509766 451.4006543 -13.16894531 450.73974609 C-14.36532289 450.03628334 -15.5616096 449.332666 -16.7578125 448.62890625 C-18.00827818 447.90227765 -19.25926344 447.17654255 -20.51074219 446.45166016 C-23.08667349 444.95801459 -25.65968841 443.45952431 -28.23046875 441.95703125 C-32.82244114 439.2751601 -37.43335943 436.62678893 -42.04394531 433.97705078 C-52.37874972 428.03398869 -62.68064679 422.03502143 -72.97412109 416.02075195 C-83.52691244 409.85875897 -94.1145807 403.75763696 -104.70361328 397.65820312 C-108.03395502 395.73883963 -111.36290398 393.81708272 -114.69140625 391.89453125 C-124.61886001 386.16098566 -134.55002261 380.43463389 -144.5078125 374.75390625 C-159.93694709 365.95020609 -175.32844067 357.08065762 -190.66748047 348.12084961 C-192.70062788 346.93369583 -194.73478131 345.74826302 -196.77001953 344.56469727 C-201.01346 342.09620894 -205.2479447 339.61903214 -209.44140625 337.06640625 C-210.08819336 336.6789624 -210.73498047 336.29151855 -211.40136719 335.89233398 C-213.04038952 334.90932209 -214.67104937 333.9124014 -216.30078125 332.9140625 C-219.55169942 331.52081186 -220.65440177 331.81493881 -224.0078125 332.75390625 C-226.41931597 333.90139506 -226.41931597 333.90139506 -228.83203125 335.38671875 C-229.76490967 335.9379541 -230.69778809 336.48918945 -231.65893555 337.05712891 C-232.66093994 337.65831543 -233.66294434 338.25950195 -234.6953125 338.87890625 C-236.86156531 340.16085584 -239.02824688 341.44208114 -241.1953125 342.72265625 C-242.87753906 343.72039062 -242.87753906 343.72039062 -244.59375 344.73828125 C-250.10455965 347.99180274 -255.64911815 351.18619433 -261.1953125 354.37890625 C-262.27369385 355.00015381 -263.3520752 355.62140137 -264.46313477 356.26147461 C-266.60289658 357.49367392 -268.74294716 358.72537192 -270.88330078 359.95654297 C-272.94461183 361.14230418 -275.00549385 362.32881157 -277.06591797 363.51611328 C-279.92015595 365.16031582 -282.77617548 366.80137616 -285.6328125 368.44140625 C-286.46707764 368.9223877 -287.30134277 369.40336914 -288.16088867 369.89892578 C-293.03494482 372.69079791 -297.96060603 375.28805137 -303.0078125 377.75390625 C-303.82981882 372.66594287 -304.19537723 367.68253819 -304.28956604 362.52745056 C-304.30735404 361.72688769 -304.32514205 360.92632483 -304.34346908 360.10150248 C-304.40105883 357.43354706 -304.45189045 354.76551416 -304.50219727 352.09741211 C-304.5412291 350.17823169 -304.58031851 348.25905244 -304.61946106 346.33987427 C-304.96474307 328.84389673 -305.16962083 311.3460482 -305.33343601 293.8475256 C-305.44614592 282.09384538 -305.60413707 270.34424736 -305.87329102 258.59301758 C-306.10843881 248.32391478 -306.25836345 238.05768991 -306.30660671 227.785945 C-306.3349402 222.35509463 -306.40440478 216.93214021 -306.57589912 211.50376701 C-307.57621552 178.54133119 -307.57621552 178.54133119 -301.65189743 170.59317398 C-296.02925259 165.67637842 -289.86678251 162.93651983 -282.80108166 160.69030762 C-279.09225486 159.44697936 -276.1185831 157.68363629 -272.8203125 155.59765625 C-270.88310616 154.48256259 -268.94561427 153.36796484 -267.0078125 152.25390625 C-258.59368989 147.40973847 -250.19906285 142.53397346 -241.8203125 137.62890625 C-234.1510989 133.14043498 -226.44456386 128.72761401 -218.6953125 124.37890625 C-210.26588452 119.64737207 -201.93392113 114.76935764 -193.6328125 109.81640625 C-183.90989053 104.01725421 -174.1050649 98.39850893 -164.20922852 92.90039062 C-155.0979125 87.82999542 -146.09341668 82.58831639 -137.09765625 77.31640625 C-130.79210831 73.62177315 -124.46486814 69.96537944 -118.1328125 66.31640625 C-117.05265869 65.69386963 -115.97250488 65.07133301 -114.85961914 64.42993164 C-112.66984916 63.16813799 -110.47998895 61.90650091 -108.29003906 60.64501953 C-102.86121308 57.51710477 -97.43461969 54.38532177 -92.0078125 51.25390625 C-89.84115667 50.00388746 -87.67449 48.75388747 -85.5078125 47.50390625 C-84.4353125 46.88515625 -83.3628125 46.26640625 -82.2578125 45.62890625 C-72.5078125 40.00390625 -72.5078125 40.00390625 -69.25732422 38.12866211 C-67.09224179 36.87955107 -64.92720268 35.63036496 -62.76220703 34.38110352 C-57.32165544 31.24188316 -51.88034034 28.10400062 -46.4375 24.96875 C-44.81086426 24.03083618 -44.81086426 24.03083618 -43.15136719 23.07397461 C-40.9894119 21.82876717 -38.8260206 20.58604932 -36.66113281 19.34594727 C-31.1444141 16.17824234 -25.67291557 12.95500289 -20.25 9.62890625 C-19.15961426 8.96834229 -18.06922852 8.30777832 -16.94580078 7.62719727 C-14.86870328 6.36595465 -12.80133178 5.08850865 -10.74560547 3.79272461 C-3.92693871 -0.32129499 -3.92693871 -0.32129499 0 0 Z " fill="#FD0000" transform="translate(720.0078125,157.24609375)"/>
<path d="M0 0 C2.40576172 1.07885742 2.40576172 1.07885742 4.9296875 2.60546875 C5.87779297 3.17007813 6.82589844 3.7346875 7.80273438 4.31640625 C8.81658203 4.93386719 9.83042969 5.55132813 10.875 6.1875 C13.04860232 7.48454347 15.22310355 8.78008158 17.3984375 10.07421875 C19.05311035 11.06301025 19.05311035 11.06301025 20.74121094 12.07177734 C25.61830753 14.95755116 30.55587704 17.73117115 35.5 20.5 C44.32119305 25.45961311 53.0791561 30.51943103 61.81298828 35.63110352 C69.15218176 39.92581627 76.5077355 44.1911251 83.875 48.4375 C84.95354248 49.05923096 86.03208496 49.68096191 87.14331055 50.3215332 C90.42860776 52.21481752 93.71423989 54.10751917 97 56 C111.69323746 64.46278158 126.37385858 72.94562195 141.01171875 81.50390625 C145.17557731 83.93781267 149.34558319 86.36078223 153.51953125 88.77734375 C155.13093994 89.71211548 155.13093994 89.71211548 156.77490234 90.66577148 C158.81427068 91.84855474 160.854871 93.02921757 162.89697266 94.20727539 C168.74488069 97.60343962 174.42359007 101.17381238 180 105 C177.18356986 108.02837983 174.4279552 110.1074732 170.8359375 112.14453125 C169.80968262 112.73113525 168.78342773 113.31773926 167.72607422 113.92211914 C166.62021973 114.54594482 165.51436523 115.16977051 164.375 115.8125 C163.20940622 116.47644453 162.04421112 117.14108941 160.87939453 117.80639648 C158.4589128 119.18813926 156.03674658 120.5668567 153.61328125 121.94335938 C148.0189178 125.1237782 142.44783944 128.34456836 136.875 131.5625 C135.93833496 132.10173096 135.00166992 132.64096191 134.03662109 133.1965332 C131.99136046 134.37514928 129.97792833 135.60993978 127.99121094 136.88476562 C124.75155792 138.80624211 121.54372324 139.732481 117.92285156 140.74023438 C110.74070118 143.1536729 103.77386678 146.03533176 100 153 C95.19608828 168.123456 97.34769337 186.09569708 97.88848877 201.70819092 C98.07459212 207.82780271 98.12305014 213.94839888 98.18359375 220.0703125 C98.32213287 232.05174542 98.61231585 244.02421818 99 256 C95.46935789 254.61572638 92.19644021 253.09020174 88.88671875 251.234375 C87.89873291 250.68144775 86.91074707 250.12852051 85.89282227 249.55883789 C84.30618774 248.66346313 84.30618774 248.66346313 82.6875 247.75 C81.57882568 247.12665771 80.47015137 246.50331543 79.32788086 245.86108398 C69.86059123 240.52126695 60.46700035 235.05876975 51.08984375 229.5625 C44.78429581 225.8678669 38.45705564 222.21147319 32.125 218.5625 C31.04484619 217.93996338 29.96469238 217.31742676 28.85180664 216.67602539 C26.66203666 215.41423174 24.47217645 214.15259466 22.28222656 212.89111328 C16.85340058 209.76319852 11.42680719 206.63141552 6 203.5 C3.83334417 202.24998121 1.6666775 200.99998122 -0.5 199.75 C-13.5 192.25 -26.5 184.75 -39.5 177.25 C-40.57451416 176.63012207 -41.64902832 176.01024414 -42.75610352 175.37158203 C-44.90254459 174.13318229 -47.04886804 172.89457865 -49.19506836 171.65576172 C-54.30002006 168.70944644 -59.40620967 165.76533542 -64.51651001 162.82830811 C-66.94660552 161.43150193 -69.37603935 160.03354722 -71.80541992 158.63549805 C-73.53304415 157.64194008 -75.2616312 156.65005691 -76.99023438 155.65820312 C-78.02599609 155.06201172 -79.06175781 154.46582031 -80.12890625 153.8515625 C-81.04744385 153.32385254 -81.96598145 152.79614258 -82.91235352 152.25244141 C-85 151 -85 151 -86 150 C-86.09527037 148.65927183 -86.1218877 147.31357497 -86.12025452 145.96946716 C-86.12162918 145.10143463 -86.12300385 144.2334021 -86.12442017 143.33906555 C-86.12082489 142.37953476 -86.11722961 141.42000397 -86.11352539 140.43139648 C-86.11367142 139.42663269 -86.11381744 138.4218689 -86.1139679 137.38665771 C-86.1132683 134.04811483 -86.10547374 130.70962695 -86.09765625 127.37109375 C-86.09579224 125.06323782 -86.09436826 122.75538149 -86.09336853 120.44752502 C-86.08954204 114.35982174 -86.07971065 108.27214214 -86.06866455 102.18444824 C-86.05845323 95.97778646 -86.05387151 89.77112087 -86.04882812 83.56445312 C-86.0380885 71.37629165 -86.02101052 59.18814779 -86 47 C-85.27457001 46.58193588 -84.54914001 46.16387177 -83.80172729 45.73313904 C-81.04896344 44.1465018 -78.29638219 42.55954831 -75.54391479 40.97239685 C-73.79137511 39.96195334 -72.03863478 38.95185787 -70.28588867 37.94177246 C-62.88430695 33.67344817 -55.49821887 29.37961363 -48.125 25.0625 C-37.79065763 19.0197357 -27.40569121 13.06879838 -16.99853516 7.15258789 C-15.86851074 6.50926514 -14.73848633 5.86594238 -13.57421875 5.203125 C-12.56963623 4.63239258 -11.56505371 4.06166016 -10.5300293 3.47363281 C-3.84179523 -0.42197471 -3.84179523 -0.42197471 0 0 Z " fill="#FD0000" transform="translate(502,530)"/>
<path d="M0 0 C1.35762451 0.80111206 1.35762451 0.80111206 2.74267578 1.6184082 C4.28761719 2.52042969 4.28761719 2.52042969 5.86376953 3.44067383 C6.96076172 4.09358398 8.05775391 4.74649414 9.18798828 5.41918945 C10.35022238 6.1017271 11.51299206 6.78335347 12.67626953 7.46411133 C15.06552332 8.86410127 17.45174449 10.26904989 19.83544922 11.6784668 C24.01257124 14.14736956 28.20450267 16.59064838 32.3972168 19.03295898 C34.33863466 20.16403037 36.27923022 21.2965144 38.21899414 22.43041992 C43.65530893 25.60765693 49.101275 28.76734651 54.55908203 31.9074707 C55.1615274 32.25421844 55.76397278 32.60096619 56.38467407 32.95822144 C59.32237755 34.64865341 62.26124054 36.33699762 65.20166016 38.02270508 C66.77077148 38.92472656 66.77077148 38.92472656 68.37158203 39.8449707 C69.76848267 40.64608276 69.76848267 40.64608276 71.19360352 41.46337891 C73.31298828 42.73168945 73.31298828 42.73168945 74.31298828 43.73168945 C74.40829991 45.08509536 74.43487548 46.4434293 74.4332428 47.80018616 C74.43530479 49.11485619 74.43530479 49.11485619 74.43740845 50.45608521 C74.43381317 51.42496674 74.4302179 52.39384827 74.42651367 53.39208984 C74.4266597 54.40660721 74.42680573 55.42112457 74.42695618 56.46638489 C74.42625657 59.83739319 74.41846197 63.208347 74.41064453 66.5793457 C74.40878052 68.90962189 74.40735654 71.23989846 74.40635681 73.57017517 C74.4025303 79.71706211 74.39269888 85.86392558 74.38165283 92.01080322 C74.37144157 98.27778811 74.3668598 104.54477678 74.36181641 110.81176758 C74.35107673 123.11841854 74.33399872 135.42505205 74.31298828 147.73168945 C-10.18701172 196.48168945 -10.18701172 196.48168945 -13.4375 198.35693359 C-15.60258243 199.60604463 -17.76762154 200.85523075 -19.93261719 202.10449219 C-25.37316878 205.24371255 -30.81448388 208.38159508 -36.25732422 211.5168457 C-46.70907632 217.53916424 -57.14980024 223.578734 -67.56201172 229.66918945 C-76.09136183 234.65417349 -84.6419958 239.60108485 -93.21417236 244.51199341 C-94.48293364 245.23904117 -95.7512884 245.96679883 -97.01922607 246.69528198 C-98.78091961 247.70702172 -100.54446767 248.71553023 -102.30810547 249.72387695 C-103.32316162 250.30508301 -104.33821777 250.88628906 -105.3840332 251.48510742 C-107.68701172 252.73168945 -107.68701172 252.73168945 -108.68701172 252.73168945 C-108.64624512 251.48491425 -108.60547852 250.23813904 -108.56347656 248.95358276 C-108.19365807 237.15625249 -107.95255242 225.36222663 -107.83467102 213.55961418 C-107.77000154 207.49175687 -107.66140298 201.43157679 -107.44921875 195.36694336 C-105.06408624 170.3022875 -105.06408624 170.3022875 -111.93212891 147.24182129 C-117.42458848 142.07683393 -123.62658817 139.61251564 -130.80517578 137.59210205 C-134.64648011 136.44522669 -137.50377961 134.73052327 -140.87451172 132.57543945 C-142.81174308 131.46038928 -144.74923483 130.34579132 -146.68701172 129.23168945 C-155.47170003 124.17198814 -164.24303995 119.09007708 -172.99951172 113.98168945 C-174.00175781 113.39709961 -175.00400391 112.81250977 -176.03662109 112.21020508 C-180.26728505 109.73963766 -184.48941935 107.25816926 -188.68701172 104.73168945 C-187.19497588 100.78005841 -185.09804784 99.45510995 -181.49951172 97.3684082 C-179.88266479 96.42070557 -179.88266479 96.42070557 -178.2331543 95.45385742 C-177.05123834 94.77540552 -175.86918715 94.09718914 -174.68701172 93.41918945 C-173.46473238 92.70800261 -172.24297863 91.99591176 -171.02172852 91.28295898 C-167.86491788 89.44369503 -164.70086001 87.61732884 -161.53411865 85.79522705 C-158.67214566 84.14734418 -155.8146572 82.49172218 -152.95654297 80.8371582 C-148.64738153 78.34564049 -144.33443935 75.860828 -140.01904297 73.38012695 C-133.89347519 69.85598168 -127.78789271 66.29835834 -121.68701172 62.73168945 C-112.27578211 57.23126756 -102.83974189 51.77509647 -93.39355469 46.33496094 C-86.18449097 42.18043048 -78.99362833 37.99595151 -71.81201172 33.79418945 C-61.93837397 28.02234995 -52.03357326 22.30582678 -42.08740234 16.65991211 C-36.36965069 13.41349393 -30.67017922 10.14242177 -25.01123047 6.79418945 C-23.96394775 6.18196533 -22.91666504 5.56974121 -21.83764648 4.93896484 C-19.87328473 3.78995666 -17.91621374 2.62835786 -15.96801758 1.45214844 C-14.65716187 0.69140015 -14.65716187 0.69140015 -13.31982422 -0.0847168 C-12.18891357 -0.75676147 -12.18891357 -0.75676147 -11.03515625 -1.44238281 C-6.95633436 -2.87705264 -3.8080916 -1.79747737 0 0 Z " fill="#FD0101" transform="translate(946.68701171875,532.268310546875)"/>
<path d="M0 0 C0.46767778 26.39015187 0.82011073 52.77968096 1.03624344 79.17314529 C1.13927779 91.42901561 1.2796732 103.68230817 1.50878906 115.93652344 C1.70844955 126.62043831 1.83723313 137.30248657 1.8817699 147.98821521 C1.90779993 153.64491871 1.96871118 159.29628377 2.11460114 164.95127106 C2.96969307 199.39388429 2.96969307 199.39388429 -1.95828247 207.0373764 C-6.54753545 211.46558078 -11.55330802 213.67755941 -17.65366268 215.31598759 C-20.92762175 216.27042352 -23.37376455 217.81123635 -26.21875 219.671875 C-27.97820712 220.69956122 -29.73861591 221.72561997 -31.5 222.75 C-32.47138916 223.31581787 -33.44277832 223.88163574 -34.44360352 224.46459961 C-42.58813468 229.19901435 -50.75864922 233.88771062 -58.9375 238.5625 C-59.52805176 238.90011353 -60.11860352 239.23772705 -60.72705078 239.58557129 C-63.4939595 241.16657906 -66.26326153 242.7428584 -69.03857422 244.30908203 C-70.91976066 245.38320382 -72.78793864 246.48069947 -74.63720703 247.60888672 C-75.41821777 248.07697754 -76.19922852 248.54506836 -77.00390625 249.02734375 C-77.66334229 249.435896 -78.32277832 249.84444824 -79.00219727 250.26538086 C-81.74129075 251.27258265 -83.22872985 250.86123437 -86 250 C-88.54174805 248.74755859 -88.54174805 248.74755859 -91.26171875 247.1484375 C-92.79602539 246.25415039 -92.79602539 246.25415039 -94.36132812 245.34179688 C-96.0077832 244.36823242 -96.0077832 244.36823242 -97.6875 243.375 C-98.84916922 242.69521082 -100.01128693 242.01618752 -101.17382812 241.33789062 C-103.58817446 239.92841697 -106.00055922 238.51567013 -108.41162109 237.10058594 C-113.92321744 233.86942626 -119.46329214 230.68790361 -125 227.5 C-138 220 -151 212.5 -164 205 C-164 138.01 -164 71.02 -164 2 C-154.60167899 6.69916051 -145.48205424 11.27585253 -136.5 16.625 C-134.4389082 17.84002378 -132.37770697 19.05486194 -130.31640625 20.26953125 C-129.27758301 20.88393066 -128.23875977 21.49833008 -127.16845703 22.13134766 C-124.00275068 23.99837774 -120.82930777 25.85141772 -117.65234375 27.69921875 C-116.61891846 28.30040527 -115.58549316 28.9015918 -114.52075195 29.52099609 C-112.48502104 30.70384457 -110.44841622 31.88519044 -108.41088867 33.06494141 C-104.0053303 35.62418997 -99.62958097 38.20558992 -95.3359375 40.94921875 C-94.3006189 41.60313599 -94.3006189 41.60313599 -93.24438477 42.27026367 C-92.0028608 43.06055259 -90.77055823 43.86562484 -89.55053711 44.6887207 C-87.76987668 45.87516419 -87.76987668 45.87516419 -85 47 C-81.54324699 45.89999567 -78.47155764 44.23830829 -75.32421875 42.453125 C-74.42678955 41.94547607 -73.52936035 41.43782715 -72.60473633 40.91479492 C-71.64204834 40.3654126 -70.67936035 39.81603027 -69.6875 39.25 C-68.67131592 38.67290283 -67.65513184 38.09580566 -66.6081543 37.5012207 C-58.4983608 32.88351587 -50.43441798 28.18894394 -42.3828125 23.47070312 C-32.96353381 17.95772686 -23.48718341 12.54676822 -13.99926758 7.15307617 C-12.86900146 6.50959229 -11.73873535 5.8661084 -10.57421875 5.203125 C-9.06734497 4.34702637 -9.06734497 4.34702637 -7.5300293 3.47363281 C-1.56626905 0 -1.56626905 0 0 0 Z " fill="#FD0000" transform="translate(802,848)"/>
<path d="M0 0 C1.84173814 0.91540659 3.65697638 1.88481121 5.453125 2.88671875 C6.53456787 3.48798584 7.61601074 4.08925293 8.73022461 4.70874023 C9.90363671 5.36805347 11.07689105 6.02764754 12.25 6.6875 C13.47071338 7.37000028 14.69149891 8.05237152 15.91235352 8.73461914 C24.53864045 13.56667292 33.10018756 18.50596529 41.6239624 23.51676941 C49.63177936 28.22133775 57.68620841 32.84070789 65.75390625 37.44140625 C67.047927 38.17999284 68.34191318 38.91864 69.63586426 39.65734863 C72.75684648 41.43892761 75.87828917 43.21969794 79 45 C79.34801532 58.27324644 79.61429665 71.54540327 79.77718258 84.82228756 C79.85537626 90.98806645 79.96135286 97.15071846 80.1315918 103.31469727 C80.29495618 109.26722783 80.3843326 115.21675855 80.42315865 121.17135811 C80.45081199 123.43913589 80.50482294 125.70675456 80.58595085 127.97324944 C81.18026017 145.26946348 81.18026017 145.26946348 77.55665398 149.80763245 C74.04432942 152.79543143 70.17011451 154.61520177 65.88569069 156.24044418 C62.99952394 157.40299155 60.4121247 159.01547392 57.76171875 160.6328125 C55.73776415 161.79823931 53.71300753 162.96227427 51.6875 164.125 C49.43355336 165.42180481 47.17964836 166.71868199 44.92578125 168.015625 C43.7857666 168.67111328 42.64575195 169.32660156 41.47119141 170.00195312 C36.88080208 172.6427469 32.29703762 175.29498873 27.71313477 177.94702148 C24.45028133 179.83152039 21.18239811 181.70706117 17.9140625 183.58203125 C14.2568082 185.68351791 10.62677809 187.81918261 7.0234375 190.01171875 C5.92249756 190.66841553 5.92249756 190.66841553 4.79931641 191.33837891 C3.48690348 192.12232439 2.18340635 192.92151637 0.89208984 193.73974609 C-2.03201457 195.46366459 -3.58432715 196.07328969 -6.96875 195.4765625 C-10.5066906 193.75318422 -13.89244649 191.85831086 -17.25 189.8125 C-18.76618915 188.90501595 -20.28316888 187.99885194 -21.80078125 187.09375 C-23.04335693 186.35125 -23.04335693 186.35125 -24.31103516 185.59375 C-29.32668088 182.62097578 -34.38426364 179.72075065 -39.4375 176.8125 C-40.52869141 176.1834375 -41.61988281 175.554375 -42.74414062 174.90625 C-47.96973417 171.89417051 -53.19741661 168.88578652 -58.42835999 165.88301086 C-60.21832874 164.85520677 -62.00780467 163.82655008 -63.79711914 162.79760742 C-66.04660049 161.50435049 -68.29704217 160.21276206 -70.54858398 158.9230957 C-71.56895752 158.33616943 -72.58933105 157.74924316 -73.640625 157.14453125 C-74.97915527 156.37653198 -74.97915527 156.37653198 -76.34472656 155.59301758 C-77.2209668 155.06732178 -78.09720703 154.54162598 -79 154 C-80.02286102 153.51072525 -81.04572205 153.0214505 -82.09957886 152.51734924 C-85.22392935 149.80564603 -85.44347721 149.46950463 -85.88302612 145.62698364 C-85.97352322 143.79571771 -86.03072897 141.9626283 -86.06201172 140.12939453 C-86.1211525 138.62606316 -86.1211525 138.62606316 -86.18148804 137.09236145 C-86.29981787 133.77248355 -86.36984188 130.45423529 -86.4296875 127.1328125 C-86.45414066 125.99553585 -86.47859383 124.8582592 -86.50378799 123.68651962 C-86.62895837 117.65989506 -86.71473757 111.63408833 -86.77099609 105.60644531 C-86.82409918 100.63221247 -86.94900507 95.66808063 -87.14013672 90.69726562 C-88.69590606 49.39288483 -88.69590606 49.39288483 -82.75595093 41.45861816 C-77.27463456 36.2524309 -71.08953784 33.81491399 -63.88061523 31.840271 C-60.03004786 30.71706646 -57.21116918 29.01279801 -53.84765625 26.84375 C-43.01975801 20.57762186 -32.16146176 14.36932525 -21.25 8.25 C-20.20851807 7.66541016 -19.16703613 7.08082031 -18.09399414 6.47851562 C-15.40211792 4.97425149 -12.70198912 3.48598427 -10 2 C-8.86046875 1.35546875 -7.7209375 0.7109375 -6.546875 0.046875 C-3.57031226 -1.17662011 -2.96571648 -1.01390598 0 0 Z " fill="#FD0000" transform="translate(723,658)"/>
<path d="M0 0 C0.66 0.33 1.32 0.66 2 1 C0 3 -2 5 -4 7 C-4.99 7 -5.98 7 -7 7 C-7.33 7.66 -7.66 8.32 -8 9 C-8.99 9 -9.98 9 -11 9 C-12.4540625 10.0209375 -12.4540625 10.0209375 -13.9375 11.0625 C-17 13 -17 13 -19.19140625 12.62109375 C-19.78824219 12.41613281 -20.38507812 12.21117187 -21 12 C-17.54914225 9.96618904 -14.08820304 7.95020566 -10.625 5.9375 C-9.64015625 5.35677734 -8.6553125 4.77605469 -7.640625 4.17773438 C-6.69960938 3.63310547 -5.75859375 3.08847656 -4.7890625 2.52734375 C-3.91975098 2.01937256 -3.05043945 1.51140137 -2.15478516 0.98803711 C-1.44370605 0.66198486 -0.73262695 0.33593262 0 0 Z " fill="#FCE9E6" transform="translate(678,1123)"/>
<path d="M0 0 C-0.33 1.65 -0.66 3.3 -1 5 C-1.86625 5.144375 -2.7325 5.28875 -3.625 5.4375 C-5.295625 5.7159375 -5.295625 5.7159375 -7 6 C-9 6.33333333 -11 6.66666667 -13 7 C-11.78081617 3.3424485 -10.15928702 2.57671131 -6.85546875 0.78515625 C-4.48526307 -0.217815 -2.54101354 -0.30800164 0 0 Z " fill="#FC0E10" transform="translate(502,530)"/>
<path d="M0 0 C-5 3.33333333 -10 6.66666667 -15 10 C-15.66 9.01 -16.32 8.02 -17 7 C-14.73595458 5.63319847 -12.46498979 4.28155555 -10.1875 2.9375 C-9.54490234 2.54755859 -8.90230469 2.15761719 -8.24023438 1.75585938 C-3.33984375 -1.11328125 -3.33984375 -1.11328125 0 0 Z " fill="#FCEBEA" transform="translate(501,489)"/>
<path d="M0 0 C2.475 0.99 2.475 0.99 5 2 C4.67 2.99 4.34 3.98 4 5 C4.33 6.32 4.66 7.64 5 9 C2.36 7.68 -0.28 6.36 -3 5 C-2.505 4.360625 -2.01 3.72125 -1.5 3.0625 C0.09802862 1.29025661 0.09802862 1.29025661 0 0 Z " fill="#FCF3F0" transform="translate(661,1101)"/>
<path d="M0 0 C0.99 0.66 1.98 1.32 3 2 C2.34 3.32 1.68 4.64 1 6 C0.01 6 -0.98 6 -2 6 C-2.33 6.66 -2.66 7.32 -3 8 C-3.33 7.34 -3.66 6.68 -4 6 C-4.99 6 -5.98 6 -7 6 C-6 3 -6 3 -2.9375 1.3125 C-1.968125 0.879375 -0.99875 0.44625 0 0 Z " fill="#FBF5F4" transform="translate(902,748)"/>
<path d="M0 0 C0.66 0.33 1.32 0.66 2 1 C1.175 1.78375 0.35 2.5675 -0.5 3.375 C-3.22988506 5.63721264 -3.22988506 5.63721264 -3 8 C-3.99 8 -4.98 8 -6 8 C-6 8.66 -6 9.32 -6 10 C-6.66 10 -7.32 10 -8 10 C-8.5 7.8125 -8.5 7.8125 -8 5 C-5.56899818 2.89646189 -2.96359654 1.24970939 0 0 Z " fill="#FA0E0F" transform="translate(206,698)"/>
<path d="M0 0 C2.35723489 2.53184488 3 3.47190093 3 7 C-0.45925163 5.7508258 -3.14693203 4.32472205 -6 2 C-3 0 -3 0 0 0 Z " fill="#FB0D0C" transform="translate(945,485)"/>
<path d="M0 0 C0.66 0.33 1.32 0.66 2 1 C1.360625 1.2475 0.72125 1.495 0.0625 1.75 C-2.18741541 2.81562433 -2.18741541 2.81562433 -2.75 5.125 C-2.8325 5.74375 -2.915 6.3625 -3 7 C-3.66 7 -4.32 7 -5 7 C-5 7.66 -5 8.32 -5 9 C-5.99 8.67 -6.98 8.34 -8 8 C-7.9375 6.25 -7.9375 6.25 -7 4 C-4.74876994 2.27481113 -2.59865097 1.23093993 0 0 Z " fill="#FA0D0D" transform="translate(897,792)"/>
<path d="M0 0 C0.66 0.33 1.32 0.66 2 1 C1.01 1.33 0.02 1.66 -1 2 C-1.33 4.31 -1.66 6.62 -2 9 C-4.5 7.625 -4.5 7.625 -7 6 C-7 5.34 -7 4.68 -7 4 C-1.7265625 0.77734375 -1.7265625 0.77734375 0 0 Z " fill="#FA1717" transform="translate(764,1115)"/>
<path d="M0 0 C3.16115776 1.36983503 3.9927092 1.9890638 6 5 C4.02 5.99 2.04 6.98 0 8 C-0.98120464 4.94736336 -0.98120464 3.05263664 0 0 Z " fill="#FDF2F3" transform="translate(836,581)"/>
<path d="M0 0 C0.33 0.66 0.66 1.32 1 2 C-0.4375 4.625 -0.4375 4.625 -2 7 C-4.31 6.67 -6.62 6.34 -9 6 C-6.11912454 3.59927045 -3.43595166 1.52708963 0 0 Z " fill="#FA1112" transform="translate(804,1092)"/>
<path d="M0 0 C0.66 0.66 1.32 1.32 2 2 C1.625 4.125 1.625 4.125 1 6 C-2.68754757 5.50168276 -4.60490662 4.89932357 -7 2 C-6.030625 1.855625 -5.06125 1.71125 -4.0625 1.5625 C-1.13513227 1.32437659 -1.13513227 1.32437659 0 0 Z " fill="#FB0B0C" transform="translate(720,1093)"/>
<path d="M0 0 C0.33 0.66 0.66 1.32 1 2 C0.67 2.99 0.34 3.98 0 5 C-0.99 5 -1.98 5 -3 5 C-3 5.66 -3 6.32 -3 7 C-3.99 7 -4.98 7 -6 7 C-6.33 6.01 -6.66 5.02 -7 4 C-4.69 2.68 -2.38 1.36 0 0 Z " fill="#FB0B0D" transform="translate(698,1153)"/>
<path d="M0 0 C0.66 0.33 1.32 0.66 2 1 C1.360625 1.2475 0.72125 1.495 0.0625 1.75 C-2.18741541 2.81562433 -2.18741541 2.81562433 -2.75 5.125 C-2.8325 5.74375 -2.915 6.3625 -3 7 C-5.31 7 -7.62 7 -10 7 C-6.81404865 4.36021174 -3.69029454 1.89501612 0 0 Z " fill="#FC1616" transform="translate(1207,1113)"/>
<path d="M0 0 C1.32 0.66 2.64 1.32 4 2 C4 2.66 4 3.32 4 4 C5.32 4.66 6.64 5.32 8 6 C7.67 6.66 7.34 7.32 7 8 C4.03 6.35 1.06 4.7 -2 3 C-1.34 2.01 -0.68 1.02 0 0 Z " fill="#FDEDEC" transform="translate(675,1112)"/>
<path d="M0 0 C2.91517292 1.07401108 4.77810176 1.77810176 7 4 C6.01 4 5.02 4 4 4 C4 4.66 4 5.32 4 6 C2.35 5.67 0.7 5.34 -1 5 C-0.67 3.35 -0.34 1.7 0 0 Z " fill="#FBF1F0" transform="translate(813,669)"/>
<path d="M0 0 C0.66 0.33 1.32 0.66 2 1 C1.01 1.33 0.02 1.66 -1 2 C-0.67 2.99 -0.34 3.98 0 5 C-3.32604951 6.10868317 -6.53058454 6.54177532 -10 7 C-6.81404865 4.36021174 -3.69029454 1.89501612 0 0 Z " fill="#FA1A19" transform="translate(540,259)"/>
<path d="M0 0 C0.66 0.33 1.32 0.66 2 1 C1.67 2.65 1.34 4.3 1 6 C-1.97 5.505 -1.97 5.505 -5 5 C-4 2 -4 2 -2.0625 0.75 C-1.381875 0.5025 -0.70125 0.255 0 0 Z " fill="#FCF4F3" transform="translate(536,1205)"/>
<path d="M0 0 C0.66 0 1.32 0 2 0 C3.6875 1.8125 3.6875 1.8125 5 4 C4.67 4.99 4.34 5.98 4 7 C0.535 5.02 0.535 5.02 -3 3 C-2.01 2.67 -1.02 2.34 0 2 C0 1.34 0 0.68 0 0 Z " fill="#FB0A0B" transform="translate(331,1125)"/>
<path d="M0 0 C0.66 0.33 1.32 0.66 2 1 C1.01 2.98 0.02 4.96 -1 7 C-1.99 6.34 -2.98 5.68 -4 5 C-4.99 5 -5.98 5 -7 5 C-4.702779 3.25728062 -2.40133271 1.60088848 0 0 Z " fill="#FCE8E6" transform="translate(281,613)"/>
<path d="M0 0 C1.32 0.33 2.64 0.66 4 1 C3.8125 2.875 3.8125 2.875 3 5 C0.4375 6.25 0.4375 6.25 -2 7 C-1.34 4.69 -0.68 2.38 0 0 Z " fill="#FCF2F1" transform="translate(798,605)"/>
<path d="M0 0 C0.66 0.33 1.32 0.66 2 1 C2 1.66 2 2.32 2 3 C2.99 2.67 3.98 2.34 5 2 C5.33 2.66 5.66 3.32 6 4 C2.535 5.485 2.535 5.485 -1 7 C-1.04254356 5.00045254 -1.04080783 2.99958364 -1 1 C-0.67 0.67 -0.34 0.34 0 0 Z " fill="#FB1010" transform="translate(418,528)"/>
<path d="M0 0 C0.99 0.66 1.98 1.32 3 2 C-1.95 4.475 -1.95 4.475 -7 7 C-7 6.01 -7 5.02 -7 4 C-4.73783745 2.45220457 -2.44775434 1.22387717 0 0 Z " fill="#F9F0EF" transform="translate(612,215)"/>
<path d="M0 0 C0.66 0.33 1.32 0.66 2 1 C1.67 1.66 1.34 2.32 1 3 C0.01 3 -0.98 3 -2 3 C-2 3.66 -2 4.32 -2 5 C-2.66 5 -3.32 5 -4 5 C-4.33 5.66 -4.66 6.32 -5 7 C-6.65 7 -8.3 7 -10 7 C-6.81404865 4.36021174 -3.69029454 1.89501612 0 0 Z " fill="#FCEFED" transform="translate(652,153)"/>
<path d="M0 0 C0.66 0.33 1.32 0.66 2 1 C-1.75 4 -1.75 4 -4 4 C-4.66 5.32 -5.32 6.64 -6 8 C-7.32 7.34 -8.64 6.68 -10 6 C-8.3811004 4.96951963 -6.75467511 3.95085322 -5.125 2.9375 C-4.22007813 2.36902344 -3.31515625 1.80054688 -2.3828125 1.21484375 C-1.20332031 0.61349609 -1.20332031 0.61349609 0 0 Z " fill="#FC1717" transform="translate(1190,1123)"/>
<path d="M0 0 C2.97 1.65 5.94 3.3 9 5 C8.67 5.66 8.34 6.32 8 7 C4.84859577 6.65930765 3.39218439 6.41923159 1.1875 4.0625 C0 2 0 2 0 0 Z " fill="#FAEDED" transform="translate(225,1068)"/>
<path d="M0 0 C-2.85306797 2.32472205 -5.54074837 3.7508258 -9 5 C-9 4.01 -9 3.02 -9 2 C-3.375 -1.125 -3.375 -1.125 0 0 Z " fill="#FDEAE9" transform="translate(1026,718)"/>
<path d="M0 0 C0.66 0.33 1.32 0.66 2 1 C1.34 2.98 0.68 4.96 0 7 C-3.875 5.25 -3.875 5.25 -5 3 C-2.625 1.4375 -2.625 1.4375 0 0 Z " fill="#FBEFED" transform="translate(737,604)"/>
<path d="M0 0 C0 0.99 0 1.98 0 3 C-1.6796875 4.38671875 -1.6796875 4.38671875 -3.875 5.6875 C-4.59429688 6.12449219 -5.31359375 6.56148437 -6.0546875 7.01171875 C-8 8 -8 8 -10 8 C-8.76736651 4.30209954 -7.79947549 4.0645154 -4.4375 2.3125 C-3.61121094 1.87550781 -2.78492188 1.43851563 -1.93359375 0.98828125 C-1.29550781 0.66214844 -0.65742187 0.33601562 0 0 Z " fill="#FCE8E6" transform="translate(867,529)"/>
<path d="M0 0 C2 1 2 1 3 3 C4.32 3 5.64 3 7 3 C6.67 3.99 6.34 4.98 6 6 C0.46153846 5.50769231 0.46153846 5.50769231 -1.875 2.9375 C-2.431875 1.9784375 -2.431875 1.9784375 -3 1 C-2.01 0.67 -1.02 0.34 0 0 Z " fill="#FCEFEE" transform="translate(938,525)"/>
<path d="M0 0 C0.66 0.33 1.32 0.66 2 1 C1.34 2.32 0.68 3.64 0 5 C-1.65 5 -3.3 5 -5 5 C-4 2 -4 2 -2.0625 0.75 C-1.381875 0.5025 -0.70125 0.255 0 0 Z " fill="#FBEEEE" transform="translate(510,235)"/>
<path d="M0 0 C0.66 0.33 1.32 0.66 2 1 C1.25 2.9375 1.25 2.9375 0 5 C-2.125 5.75 -2.125 5.75 -4 6 C-4.33 5.01 -4.66 4.02 -5 3 C-2.625 1.4375 -2.625 1.4375 0 0 Z " fill="#FCEDEC" transform="translate(1078,1146)"/>
<path d="M0 0 C0 0.99 0 1.98 0 3 C-2.375 4.5625 -2.375 4.5625 -5 6 C-5.66 6.66 -6.32 7.32 -7 8 C-7.99 7.34 -8.98 6.68 -10 6 C-6.7 4.02 -3.4 2.04 0 0 Z " fill="#FDE4E2" transform="translate(219,649)"/>
<path d="M0 0 C0.66 0.33 1.32 0.66 2 1 C-2.625 5.875 -2.625 5.875 -6 7 C-5.8125 5.1875 -5.8125 5.1875 -5 3 C-2.5625 1.1875 -2.5625 1.1875 0 0 Z " fill="#FB1012" transform="translate(793,1098)"/>
<path d="M0 0 C0.33 0.66 0.66 1.32 1 2 C-1.55991624 4.01136276 -4.04590299 5.62845496 -7 7 C-7.66 6.34 -8.32 5.68 -9 5 C-6.03 3.35 -3.06 1.7 0 0 Z " fill="#FB171A" transform="translate(459,306)"/>
<path d="M0 0 C-1.25 1.5 -1.25 1.5 -3 3 C-4.32 3 -5.64 3 -7 3 C-7 2.01 -7 1.02 -7 0 C-3.98968256 -0.93423645 -3.13349732 -1.04449911 0 0 Z " fill="#FBEBEA" transform="translate(505,1264)"/>
<path d="M0 0 C0.33 0.66 0.66 1.32 1 2 C0.01 3.485 0.01 3.485 -1 5 C-4.125 5.1875 -4.125 5.1875 -7 5 C-2.25 1.125 -2.25 1.125 0 0 Z " fill="#FA1010" transform="translate(1076,1189)"/>
<path d="M0 0 C1.5 1.3125 1.5 1.3125 3 3 C3 3.99 3 4.98 3 6 C0.08482708 4.92598892 -1.77810176 4.22189824 -4 2 C-2.68 1.34 -1.36 0.68 0 0 Z " fill="#FC1010" transform="translate(841,1165)"/>
<path d="M0 0 C0.66 0.33 1.32 0.66 2 1 C0 3 -2 5 -4 7 C-4 6.34 -4 5.68 -4 5 C-4.99 4.67 -5.98 4.34 -7 4 C-1.7265625 0.77734375 -1.7265625 0.77734375 0 0 Z " fill="#FCE9E7" transform="translate(758,1077)"/>
<path d="M0 0 C0.66 0.33 1.32 0.66 2 1 C1.01 1.33 0.02 1.66 -1 2 C-0.67 2.99 -0.34 3.98 0 5 C-1.98 5.99 -1.98 5.99 -4 7 C-4.33 5.68 -4.66 4.36 -5 3 C-2.625 1.4375 -2.625 1.4375 0 0 Z " fill="#FBF0ED" transform="translate(174,675)"/>
<path d="M0 0 C0.99 0.99 1.98 1.98 3 3 C2.67 3.99 2.34 4.98 2 6 C0.02 5.01 -1.96 4.02 -4 3 C-2.68 2.67 -1.36 2.34 0 2 C0 1.34 0 0.68 0 0 Z " fill="#FCEDEC" transform="translate(1095,614)"/>
<path d="M0 0 C-1.65 1.32 -3.3 2.64 -5 4 C-5.66 3.67 -6.32 3.34 -7 3 C-7 2.01 -7 1.02 -7 0 C-4.3333581 -1.33332095 -2.83319697 -0.67102033 0 0 Z " fill="#FC1010" transform="translate(732,607)"/>
<path d="M0 0 C0.99 0 1.98 0 3 0 C3 0.66 3 1.32 3 2 C4.32 1.67 5.64 1.34 7 1 C6.67 2.32 6.34 3.64 6 5 C3.08482708 3.92598892 1.22189824 3.22189824 -1 1 C-0.67 0.67 -0.34 0.34 0 0 Z " fill="#FA1011" transform="translate(994,517)"/>
<path d="M0 0 C-2.97 1.65 -5.94 3.3 -9 5 C-8.67 3.68 -8.34 2.36 -8 1 C-4.70594381 -0.82039948 -3.63772813 -1.21257604 0 0 Z " fill="#FBEBE8" transform="translate(670,185)"/>
<path d="M0 0 C0.66 0.33 1.32 0.66 2 1 C1.34 2.32 0.68 3.64 0 5 C-1.65 5 -3.3 5 -5 5 C-4 2 -4 2 -2.0625 0.75 C-1.381875 0.5025 -0.70125 0.255 0 0 Z " fill="#F90F10" transform="translate(707,1148)"/>
<path d="M0 0 C0.99 0.33 1.98 0.66 3 1 C2.67 1.99 2.34 2.98 2 4 C-0.5625 5.1875 -0.5625 5.1875 -3 6 C-3.33 5.34 -3.66 4.68 -4 4 C-2.68 2.68 -1.36 1.36 0 0 Z " fill="#FAEDEE" transform="translate(755,870)"/>
<path d="M0 0 C0.33 0.66 0.66 1.32 1 2 C-0.423125 2.928125 -0.423125 2.928125 -1.875 3.875 C-4.94445109 5.81970969 -4.94445109 5.81970969 -7 8 C-7 7.34 -7 6.68 -7 6 C-7.66 5.67 -8.32 5.34 -9 5 C-6.03 3.35 -3.06 1.7 0 0 Z " fill="#FDE3E1" transform="translate(659,649)"/>
<path d="M0 0 C0.66 1.32 1.32 2.64 2 4 C0.35 4.66 -1.3 5.32 -3 6 C-3.33 5.01 -3.66 4.02 -4 3 C-2.68 2.01 -1.36 1.02 0 0 Z " fill="#FAF6F4" transform="translate(785,614)"/>
<path d="M0 0 C0 0.99 0 1.98 0 3 C-4.22222222 6 -4.22222222 6 -7 6 C-7 5.34 -7 4.68 -7 4 C-4.69 2.68 -2.38 1.36 0 0 Z " fill="#FBE4E2" transform="translate(342,578)"/>
<path d="M0 0 C0.66 0.33 1.32 0.66 2 1 C0.875 3 0.875 3 -1 5 C-4.1875 5.25 -4.1875 5.25 -7 5 C-2.25 1.125 -2.25 1.125 0 0 Z " fill="#FCE5E2" transform="translate(905,507)"/>
<path d="M0 0 C1.65 1.65 3.3 3.3 5 5 C1.48283697 5 0.62878252 4.17554415 -2 2 C-1.34 1.34 -0.68 0.68 0 0 Z " fill="#FEEDED" transform="translate(974,301)"/>
<path d="M0 0 C0.99 0 1.98 0 3 0 C3 0.66 3 1.32 3 2 C3.66 2.33 4.32 2.66 5 3 C3.125 4.0625 3.125 4.0625 1 5 C0.34 4.67 -0.32 4.34 -1 4 C-0.67 2.68 -0.34 1.36 0 0 Z " fill="#FCF3F1" transform="translate(528,261)"/>
<path d="M0 0 C0.66 0.33 1.32 0.66 2 1 C1.01 2.485 1.01 2.485 0 4 C-3.125 4.1875 -3.125 4.1875 -6 4 C-4.03617993 2.49440461 -2.21736634 1.10868317 0 0 Z " fill="#FB1313" transform="translate(624,1196)"/>
<path d="M0 0 C-0.33 1.32 -0.66 2.64 -1 4 C-2.98 4 -4.96 4 -7 4 C-2.25 0 -2.25 0 0 0 Z " fill="#FCEDEC" transform="translate(1212,1070)"/>
<path d="M0 0 C1.65 0.33 3.3 0.66 5 1 C5.33 2.32 5.66 3.64 6 5 C3.69 4.01 1.38 3.02 -1 2 C-0.67 1.34 -0.34 0.68 0 0 Z " fill="#FA1212" transform="translate(202,1053)"/>
<path d="M0 0 C0.33 0.66 0.66 1.32 1 2 C-0.95216435 3.95216435 -2.53199953 4.84826645 -5 6 C-5.66 5.34 -6.32 4.68 -7 4 C-4.69 2.68 -2.38 1.36 0 0 Z " fill="#FCE9E7" transform="translate(787,814)"/>
<path d="M0 0 C-2.64 1.65 -5.28 3.3 -8 5 C-8.66 4.34 -9.32 3.68 -10 3 C-3.375 -1.125 -3.375 -1.125 0 0 Z " fill="#FCE4E2" transform="translate(1003,692)"/>
<path d="M0 0 C1.32 0.66 2.64 1.32 4 2 C4 2.99 4 3.98 4 5 C3.34 5 2.68 5 2 5 C1.67 5.66 1.34 6.32 1 7 C1 6.01 1 5.02 1 4 C0.34 3.67 -0.32 3.34 -1 3 C-0.67 2.01 -0.34 1.02 0 0 Z " fill="#FDF2EF" transform="translate(1052,308)"/>
<path d="M0 0 C2.625 0.375 2.625 0.375 5 1 C3.35 2.32 1.7 3.64 0 5 C-0.66 4.01 -1.32 3.02 -2 2 C-1.34 1.34 -0.68 0.68 0 0 Z " fill="#FC1113" transform="translate(429,278)"/>
</svg>
